REM DIRINDEX 1\2,1\4,1\3\5,1\3\6,1\3\7
REM DIRNAME cjc082,folder01,folder02,folder03,folder04,folder05,folder06
TITLE ""
FILE "CD2Track52.mp3" MP3
  TRACK 01 AUDIO
    TITLE "0:"
    INDEX 01 00:00:00
  TRACK 02 AUDIO
    TITLE "4:cjc082_2292"
    INDEX 01 00:00:25
  TRACK 03 AUDIO
    TITLE "0:"
    INDEX 01 00:04:36
  TRACK 04 AUDIO
    TITLE "5:cjc082_2293"
    INDEX 01 00:05:09
  TRACK 05 AUDIO
    TITLE "0:"
    INDEX 01 00:06:20
  TRACK 06 AUDIO
    TITLE "6:cjc082_2294"
    INDEX 01 00:06:71
  TRACK 07 AUDIO
    TITLE "0:"
    INDEX 01 00:09:16
  TRACK 08 AUDIO
    TITLE "5:cjc082_2295"
    INDEX 01 00:09:61
  TRACK 09 AUDIO
    TITLE "0:"
    INDEX 01 00:11:11
  TRACK 10 AUDIO
    TITLE "6:cjc082_2296"
    INDEX 01 00:11:58
  TRACK 11 AUDIO
    TITLE "0:"
    INDEX 01 00:13:45
  TRACK 12 AUDIO
    TITLE "5:cjc082_2297"
    INDEX 01 00:14:17
  TRACK 13 AUDIO
    TITLE "0:"
    INDEX 01 00:16:38
  TRACK 14 AUDIO
    TITLE "6:cjc082_2298"
    INDEX 01 00:17:04
  TRACK 15 AUDIO
    TITLE "0:"
    INDEX 01 00:19:18
  TRACK 16 AUDIO
    TITLE "5:cjc082_2299"
    INDEX 01 00:19:67
  TRACK 17 AUDIO
    TITLE "0:"
    INDEX 01 00:21:15
  TRACK 18 AUDIO
    TITLE "6:cjc082_2300"
    INDEX 01 00:21:66
  TRACK 19 AUDIO
    TITLE "0:"
    INDEX 01 00:23:22
  TRACK 20 AUDIO
    TITLE "5:cjc082_2301"
    INDEX 01 00:23:67
  TRACK 21 AUDIO
    TITLE "0:"
    INDEX 01 00:25:25
  TRACK 22 AUDIO
    TITLE "6:cjc082_2302"
    INDEX 01 00:25:72
  TRACK 23 AUDIO
    TITLE "0:"
    INDEX 01 00:28:31
  TRACK 24 AUDIO
    TITLE "5:cjc082_2303"
    INDEX 01 00:29:01
  TRACK 25 AUDIO
    TITLE "0:"
    INDEX 01 00:30:22
  TRACK 26 AUDIO
    TITLE "6:cjc082_2304"
    INDEX 01 00:30:73
  TRACK 27 AUDIO
    TITLE "0:"
    INDEX 01 00:32:13
  TRACK 28 AUDIO
    TITLE "5:cjc082_2305"
    INDEX 01 00:32:56
  TRACK 29 AUDIO
    TITLE "0:"
    INDEX 01 00:34:04
  TRACK 30 AUDIO
    TITLE "6:cjc082_2306"
    INDEX 01 00:34:53
  TRACK 31 AUDIO
    TITLE "0:"
    INDEX 01 00:36:19
  TRACK 32 AUDIO
    TITLE "5:cjc082_2307"
    INDEX 01 00:36:64
  TRACK 33 AUDIO
    TITLE "0:"
    INDEX 01 00:38:22
  TRACK 34 AUDIO
    TITLE "6:cjc082_2308"
    INDEX 01 00:39:00
  TRACK 35 AUDIO
    TITLE "0:"
    INDEX 01 00:40:03
  TRACK 36 AUDIO
    TITLE "5:cjc082_2309"
    INDEX 01 00:40:48
  TRACK 37 AUDIO
    TITLE "0:"
    INDEX 01 00:42:06
  TRACK 38 AUDIO
    TITLE "6:cjc082_2310"
    INDEX 01 00:42:51
  TRACK 39 AUDIO
    TITLE "0:"
    INDEX 01 00:43:64
  TRACK 40 AUDIO
    TITLE "5:cjc082_2311"
    INDEX 01 00:44:40
  TRACK 41 AUDIO
    TITLE "0:"
    INDEX 01 00:45:45
  TRACK 42 AUDIO
    TITLE "6:cjc082_2312"
    INDEX 01 00:46:15
  TRACK 43 AUDIO
    TITLE "0:"
    INDEX 01 00:47:30
  TRACK 44 AUDIO
    TITLE "5:cjc082_2313"
    INDEX 01 00:47:72
  TRACK 45 AUDIO
    TITLE "0:"
    INDEX 01 00:49:08
  TRACK 46 AUDIO
    TITLE "6:cjc082_2314"
    INDEX 01 00:49:61
  TRACK 47 AUDIO
    TITLE "0:"
    INDEX 01 00:50:58
  TRACK 48 AUDIO
    TITLE "5:cjc082_2315"
    INDEX 01 00:51:26
  TRACK 49 AUDIO
    TITLE "0:"
    INDEX 01 00:52:53
  TRACK 50 AUDIO
    TITLE "6:cjc082_2316"
    INDEX 01 00:53:25
  TRACK 51 AUDIO
    TITLE "0:"
    INDEX 01 00:55:40
  TRACK 52 AUDIO
    TITLE "5:cjc082_2317"
    INDEX 01 00:56:12
  TRACK 53 AUDIO
    TITLE "0:"
    INDEX 01 00:57:15
  TRACK 54 AUDIO
    TITLE "6:cjc082_2318"
    INDEX 01 00:57:66
  TRACK 55 AUDIO
    TITLE "0:"
    INDEX 01 00:58:71
  TRACK 56 AUDIO
    TITLE "5:cjc082_2319"
    INDEX 01 00:59:49
  TRACK 57 AUDIO
    TITLE "0:"
    INDEX 01 01:01:11
  TRACK 58 AUDIO
    TITLE "6:cjc082_2320"
    INDEX 01 01:01:60
  TRACK 59 AUDIO
    TITLE "0:"
    INDEX 01 01:04:13
  TRACK 60 AUDIO
    TITLE "5:cjc082_2321"
    INDEX 01 01:04:58
  TRACK 61 AUDIO
    TITLE "0:"
    INDEX 01 01:05:64
  TRACK 62 AUDIO
    TITLE "6:cjc082_2322"
    INDEX 01 01:06:45
  TRACK 63 AUDIO
    TITLE "0:"
    INDEX 01 01:11:23
  TRACK 64 AUDIO
    TITLE "5:cjc082_2323"
    INDEX 01 01:11:66
  TRACK 65 AUDIO
    TITLE "0:"
    INDEX 01 01:13:26
  TRACK 66 AUDIO
    TITLE "6:cjc082_2324"
    INDEX 01 01:13:73
  TRACK 67 AUDIO
    TITLE "0:"
    INDEX 01 01:17:12
  TRACK 68 AUDIO
    TITLE "5:cjc082_2325"
    INDEX 01 01:17:61
  TRACK 69 AUDIO
    TITLE "0:"
    INDEX 01 01:19:56
  TRACK 70 AUDIO
    TITLE "6:cjc082_2326"
    INDEX 01 01:20:34
  TRACK 71 AUDIO
    TITLE "0:"
    INDEX 01 01:23:52
  TRACK 72 AUDIO
    TITLE "5:cjc082_2327"
    INDEX 01 01:24:26
  TRACK 73 AUDIO
    TITLE "0:"
    INDEX 01 01:26:29
  TRACK 74 AUDIO
    TITLE "6:cjc082_2328"
    INDEX 01 01:27:04
  TRACK 75 AUDIO
    TITLE "0:"
    INDEX 01 01:29:07
  TRACK 76 AUDIO
    TITLE "5:cjc082_2329"
    INDEX 01 01:29:56
  TRACK 77 AUDIO
    TITLE "0:"
    INDEX 01 01:30:71
  TRACK 78 AUDIO
    TITLE "6:cjc082_2330"
    INDEX 01 01:31:45
  TRACK 79 AUDIO
    TITLE "0:"
    INDEX 01 01:32:51
  TRACK 80 AUDIO
    TITLE "7:cjc082_2331"
    INDEX 01 01:34:20
  TRACK 81 AUDIO
    TITLE "0:"
    INDEX 01 01:45:02
  TRACK 82 AUDIO
    TITLE "4:cjc082_2332"
    INDEX 01 01:47:52
  TRACK 83 AUDIO
    TITLE "0:"
    INDEX 01 01:50:58
